<?xml version="1.0" standalone="no"?><!DOCTYPE svg PUBLIC "-//W3C//DTD SVG 1.1//EN" "http://www.w3.org/Graphics/SVG/1.1/DTD/svg11.dtd"><svg t="1656121556643" class="icon" viewBox="0 0 1024 1024" version="1.1" xmlns="http://www.w3.org/2000/svg" p-id="4556" xmlns:xlink="http://www.w3.org/1999/xlink" width="200" height="200"><defs><style type="text/css">@font-face { font-family: feedback-iconfont; src: url("//at.alicdn.com/t/font_1031158_u69w8yhxdu.woff2?t=1630033759944") format("woff2"), url("//at.alicdn.com/t/font_1031158_u69w8yhxdu.woff?t=1630033759944") format("woff"), url("//at.alicdn.com/t/font_1031158_u69w8yhxdu.ttf?t=1630033759944") format("truetype"); }
</style></defs><path d="M791.005867 68.266667c88.2688 0 160.699733 67.618133 164.5568 153.019733l0.170666 7.168v567.125333c0 86.3232-70.075733 156.296533-157.422933 159.982934l-7.304533 0.170666H301.2608c-88.2688 0-160.699733-67.618133-164.5568-153.019733L136.533333 795.5456v-8.9088a34.133333 34.133333 0 0 1 68.027734-3.9936l0.238933 3.9936v8.942933c0 48.605867 39.799467 88.814933 90.555733 91.716267l5.905067 0.170667h489.745067c51.541333 0 93.252267-38.4 96.256-86.357334l0.2048-5.5296V228.420267c0-48.605867-39.799467-88.814933-90.555734-91.716267L791.005867 136.533333H301.2608c-51.541333 0-93.252267 38.4-96.256 86.357334L204.8 228.386133v17.169067a34.133333 34.133333 0 0 1-68.027733 3.9936L136.533333 245.589333v-17.169066c0-86.3232 70.075733-156.296533 157.422934-159.982934L301.2608 68.266667h489.745067zM546.133333 238.933333a170.666667 170.666667 0 0 1 107.1104 303.547734C731.989333 590.267733 785.066667 689.288533 785.066667 802.133333a34.133333 34.133333 0 0 1-68.266667 0c0-124.0064-78.301867-221.866667-170.666667-221.866666s-170.666667 97.860267-170.666666 221.866666a34.133333 34.133333 0 0 1-68.266667 0c0-112.8448 53.077333-211.831467 131.857067-259.6864A170.666667 170.666667 0 0 1 546.133333 238.933333zM238.933333 648.533333a34.133333 34.133333 0 0 1 0 68.266667H102.4a34.133333 34.133333 0 0 1 0-68.266667h136.533333z m0-170.666666a34.133333 34.133333 0 0 1 0 68.266666H102.4a34.133333 34.133333 0 0 1 0-68.266666h136.533333z m307.2-170.666667a102.4 102.4 0 1 0 0 204.8 102.4 102.4 0 0 0 0-204.8zM238.933333 307.2a34.133333 34.133333 0 1 1 0 68.266667H102.4a34.133333 34.133333 0 0 1 0-68.266667h136.533333z" fill="#2B2B36" p-id="4557"></path></svg>